<svg id="Layer_1" data-name="Layer 1" xmlns="http://www.w3.org/2000/svg" viewBox="0 0 512 512"><title>baseball-bat-flat</title><rect y="9.14" width="512" height="493.72" rx="54.99" ry="54.99" transform="translate(512) rotate(90)" fill="#e6d6a6"/><rect x="20.24" y="11.1" width="471.53" height="489.81" rx="43.89" ry="43.89" fill="#e2ba20"/><path d="M240.34,347.55a27.44,27.44,0,1,0,28.36,26.8A27.56,27.56,0,0,0,240.34,347.55Z" fill="#e6d6a6"/><path d="M398.53,111.77c-4.67-5.19-22.9-23.59-36.36-10,0,0-168.51,160.45-203.11,236.74,0,0-11.69,11.81-24.34,24.61l-23.44,23.68a8.38,8.38,0,0,0-11,.75,8.22,8.22,0,0,0,.12,11.7l13.91,13.49a8.41,8.41,0,0,0,11.82-.14,8.14,8.14,0,0,0,.53-10.88l23.44-23.69,24.34-24.6c76.37-35.85,234.93-205.92,234.93-205.92C422.84,133.91,403.87,116.28,398.53,111.77Z" fill="#e6d6a6"/></svg>